<?xml version="1.0" standalone="no"?>
<!DOCTYPE svg PUBLIC "-//W3C//DTD SVG 20010904//EN"
 "http://www.w3.org/TR/2001/REC-SVG-20010904/DTD/svg10.dtd">
<svg version="1.0" xmlns="http://www.w3.org/2000/svg"
 width="1296.000000pt" height="1296.000000pt" viewBox="0 0 1296.000000 1296.000000"
 preserveAspectRatio="xMidYMid meet">
<metadata>
Created by potrace 1.14, written by Peter Selinger 2001-2017
</metadata>
<g transform="translate(0.000000,1296.000000) scale(0.100000,-0.100000)"
fill="#000000" stroke="none">
<path d="M6179 12956 c-2 -2 -56 -7 -119 -10 -63 -4 -128 -9 -145 -11 -16 -2
-61 -6 -100 -10 -76 -6 -100 -9 -220 -26 -44 -6 -93 -13 -110 -15 -16 -2 -68
-11 -115 -20 -47 -9 -96 -18 -110 -20 -168 -30 -464 -103 -650 -160 -263 -81
-428 -141 -690 -251 -153 -64 -574 -275 -665 -334 -16 -10 -41 -24 -55 -29
-13 -6 -27 -14 -30 -18 -3 -4 -21 -16 -40 -26 -127 -70 -596 -394 -666 -461
-6 -5 -26 -21 -44 -35 -35 -27 -57 -45 -184 -154 -157 -135 -457 -430 -576
-566 -36 -41 -72 -82 -82 -91 -20 -21 -258 -316 -278 -345 -8 -12 -47 -66 -86
-120 -68 -95 -168 -240 -189 -276 -5 -9 -47 -77 -92 -151 -82 -135 -105 -176
-191 -337 -54 -101 -92 -177 -122 -245 -13 -27 -40 -88 -61 -134 -22 -46 -39
-90 -39 -97 0 -7 -3 -14 -7 -16 -5 -1 -16 -23 -25 -48 -9 -25 -37 -99 -63
-165 -102 -266 -224 -668 -270 -890 -2 -11 -9 -45 -15 -75 -7 -30 -13 -66 -15
-78 -2 -13 -8 -45 -14 -70 -12 -53 -36 -201 -46 -277 -3 -27 -8 -59 -10 -70
-4 -21 -11 -80 -21 -186 -3 -35 -7 -77 -9 -94 -27 -211 -27 -908 -1 -1130 3
-22 8 -67 11 -100 3 -33 7 -71 9 -85 3 -14 7 -49 10 -79 7 -57 23 -170 30
-211 3 -14 12 -68 21 -120 9 -52 18 -97 20 -100 2 -3 6 -26 10 -50 3 -25 11
-63 17 -85 5 -22 12 -47 13 -55 51 -239 201 -730 274 -895 5 -11 17 -40 26
-65 19 -51 19 -52 105 -245 35 -77 78 -170 96 -207 19 -38 35 -71 35 -75 0 -5
5 -13 10 -19 5 -6 32 -55 60 -110 28 -54 58 -106 65 -115 8 -8 14 -19 14 -22
0 -18 272 -453 337 -537 6 -8 65 -87 131 -175 66 -88 129 -169 139 -180 10
-11 40 -47 68 -80 27 -33 54 -65 60 -71 5 -6 39 -44 75 -85 82 -94 403 -415
494 -494 38 -33 74 -65 80 -71 39 -37 270 -222 371 -297 66 -48 127 -94 135
-100 17 -13 137 -93 260 -174 41 -27 102 -64 135 -83 33 -19 69 -40 80 -47 11
-7 27 -15 35 -19 8 -4 27 -15 41 -25 68 -47 428 -223 704 -344 143 -63 498
-187 685 -240 111 -31 268 -73 300 -79 14 -3 79 -17 145 -32 66 -14 129 -28
140 -29 11 -2 72 -13 135 -23 63 -11 138 -23 165 -27 28 -3 59 -8 70 -10 11
-2 47 -7 80 -10 33 -4 74 -8 90 -10 42 -6 143 -15 260 -22 218 -15 827 -7 980
12 17 2 59 6 95 10 36 3 79 8 95 10 17 2 59 7 95 10 36 4 67 9 70 10 3 2 30 6
59 10 30 3 88 13 130 21 42 8 92 17 111 20 19 3 85 17 145 30 61 14 121 27
135 29 14 3 57 14 95 24 39 10 113 31 165 45 182 49 591 190 671 231 16 9 29
12 29 8 0 -4 5 -2 12 5 7 7 20 12 30 12 10 0 18 5 18 10 0 6 6 10 14 10 36 0
575 266 691 340 17 11 41 25 55 30 13 6 27 14 30 18 3 4 21 16 40 26 127 70
592 391 666 461 6 5 29 24 50 40 35 27 91 74 120 100 6 6 35 30 65 55 201 169
500 475 743 760 103 121 315 409 427 580 330 504 597 1072 772 1646 110 358
208 822 242 1139 1 11 5 52 9 90 4 39 9 84 11 100 13 101 20 298 20 565 0 347
-10 543 -40 770 -3 19 -7 58 -10 85 -3 28 -13 93 -21 145 -9 52 -18 109 -20
125 -3 17 -12 64 -20 105 -9 41 -18 89 -20 105 -3 17 -10 48 -16 70 -11 43
-16 66 -24 105 -3 14 -21 84 -40 155 -19 72 -37 137 -39 145 -16 63 -129 409
-145 445 -19 42 -42 101 -45 115 -4 16 -54 137 -87 210 -11 25 -36 81 -56 125
-149 342 -428 816 -680 1155 -75 102 -228 296 -257 326 -5 6 -30 35 -55 64
-124 146 -420 447 -558 570 -41 36 -95 84 -121 107 -26 23 -87 74 -137 113
-49 39 -96 77 -106 85 -9 7 -61 46 -115 87 -54 40 -99 76 -101 81 -2 4 -8 7
-14 7 -6 0 -27 14 -48 30 -21 17 -42 30 -48 30 -6 0 -12 3 -14 8 -4 9 -114 81
-253 166 -60 37 -117 71 -125 77 -8 5 -22 12 -30 16 -8 3 -27 15 -42 25 -51
36 -580 298 -600 298 -4 0 -35 13 -70 29 -82 38 -139 62 -158 66 -8 2 -50 18
-94 35 -274 107 -846 268 -1053 295 -12 2 -34 6 -50 9 -45 10 -64 13 -148 26
-121 17 -138 20 -165 25 -14 2 -56 7 -95 10 -38 4 -77 8 -85 10 -8 2 -60 7
-115 11 -55 3 -109 8 -120 11 -22 5 -731 14 -736 9z"/>
</g>
</svg>
